<?xml version="1.0" encoding="UTF-8"?>
<svg version="1.1" xmlns="http://www.w3.org/2000/svg" width="500" height="175">
<path d="M0 0 C13.57125 -0.061875 27.1425 -0.12375 41.125 -0.1875 C45.38293457 -0.21481201 49.64086914 -0.24212402 54.02783203 -0.27026367 C59.29663086 -0.28381348 59.29663086 -0.28381348 61.77658081 -0.28633118 C63.47932296 -0.2908862 65.1820565 -0.30132763 66.88473511 -0.31672668 C84.73866517 -0.46988364 102.60536631 1.00798637 116.5 13.6875 C125.02864835 23.07818378 127.51843855 33.6827713 127.27734375 46.00390625 C126.75244515 56.82830776 122.64482082 65.68123382 114.8359375 73.0390625 C112.92213699 74.73646154 110.98545469 76.38744797 109 78 C109.64066406 78.4125 110.28132813 78.825 110.94140625 79.25 C120.94218063 85.92711911 128.19270072 93.46282968 131.25 105.3125 C133.51732546 117.26191797 132.01581708 130.33942689 125.56640625 140.8125 C116.25059812 153.82210736 104.02553146 161.50457651 88.33526611 164.57165527 C80.75247028 165.54550578 73.06128337 165.24022715 65.4296875 165.1953125 C63.75203586 165.19236658 62.07438237 165.19032953 60.39672852 165.18920898 C54.22279071 165.17878527 48.04889243 165.15086283 41.875 165.125 C28.05625 165.08375 14.2375 165.0425 0 165 C0 110.55 0 56.1 0 0 Z M36 28 C36 40.21 36 52.42 36 65 C41.5275 65.061875 47.055 65.12375 52.75 65.1875 C54.46799805 65.21481201 56.18599609 65.24212402 57.95605469 65.27026367 C72.816102 65.54113504 72.816102 65.54113504 86.0625 59.6875 C90.49789978 53.53517127 92.21423306 48.56560597 91 41 C89.1912638 36.10971324 86.61228296 32.99967225 82 30.5625 C76.26749827 27.98518571 70.62313135 27.86129277 64.41796875 27.90234375 C63.69565063 27.90335083 62.97333252 27.90435791 62.22912598 27.90539551 C59.54856768 27.91060048 56.86803213 27.92456163 54.1875 27.9375 C45.1846875 27.9684375 45.1846875 27.9684375 36 28 Z M36 93 C36 107.52 36 122.04 36 137 C41.56875 137.04125 47.1375 137.0825 52.875 137.125 C54.61120605 137.14320801 56.34741211 137.16141602 58.13623047 137.18017578 C73.87871469 137.301671 73.87871469 137.301671 88 131 C93.79742548 124.88920017 94.40774203 119.26110701 94.2421875 111.09375 C93.79715439 105.40881094 91.70719822 102.4764511 87.625 98.75 C80.60805619 93.11585015 72.99164047 92.84459552 64.3203125 92.90234375 C63.59900146 92.90335083 62.87769043 92.90435791 62.13452148 92.90539551 C59.4646646 92.91058978 56.79483054 92.92455078 54.125 92.9375 C48.14375 92.958125 42.1625 92.97875 36 93 Z " fill="#EE2B2E" transform="translate(213,5)"/>
<path d="M0 0 C15.18 0 30.36 0 46 0 C54.18541576 22.85432914 62.32724703 45.72191156 70.375 68.625 C76.29058392 85.45757024 82.20989189 102.28875665 88.16094971 119.10882568 C88.87230222 121.11977294 89.58321827 123.13087466 90.29364014 125.14215088 C91.2830388 127.94287255 92.27379501 130.74310721 93.265625 133.54296875 C93.57597687 134.41914856 93.88632874 135.29532837 94.20608521 136.19805908 C96.70205887 143.21821569 99.27494127 150.20899522 101.90582275 157.17973328 C104 162.7838798 104 162.7838798 104 165 C91.13 165 78.26 165 65 165 C62.855 159.10125 60.71 153.2025 58.5 147.125 C57.82130859 145.26375488 57.14261719 143.40250977 56.44335938 141.48486328 C55.9099027 140.01343825 55.37668319 138.54192721 54.84375 137.0703125 C54.56305664 136.30323975 54.28236328 135.53616699 53.99316406 134.74584961 C52 129.2281436 52 129.2281436 52 127 C32.53 127 13.06 127 -7 127 C-7.99 130.63 -8.98 134.26 -10 138 C-10.73067697 140.33422165 -11.48147241 142.66234555 -12.26171875 144.98046875 C-12.79865356 146.58378052 -12.79865356 146.58378052 -13.34643555 148.21948242 C-14.01026245 150.18365112 -14.01026245 150.18365112 -14.6875 152.1875 C-16.110625 156.415625 -17.53375 160.64375 -19 165 C-30.88 165 -42.76 165 -55 165 C-54.31412867 160.19890071 -53.71430188 156.65472963 -52.20019531 152.22241211 C-51.82680527 151.11938248 -51.45341522 150.01635284 -51.06871033 148.87989807 C-50.45462059 147.09663368 -50.45462059 147.09663368 -49.828125 145.27734375 C-49.39325295 143.99989751 -48.95894661 142.72225858 -48.52516174 141.44444275 C-47.3517767 137.99280333 -46.17095391 134.54375083 -44.98877335 131.09511566 C-43.74552437 127.46415974 -42.50908383 123.83088772 -41.2722168 120.19775391 C-39.73427636 115.68151704 -38.19569236 111.165504 -36.65409851 106.6505127 C-33.16775516 96.43894886 -29.70273995 86.22038346 -26.25390625 75.99609375 C-17.68402226 50.59797308 -9.08463245 25.22002441 0 0 Z M21 29 C20.62415771 30.29357422 20.62415771 30.29357422 20.24072266 31.61328125 C19.03872418 35.74314087 17.83315691 39.87193827 16.625 44 C16.40434875 44.75410156 16.18369751 45.50820313 15.95635986 46.28515625 C12.14326135 59.29612948 8.16052625 72.24822826 4.04931641 85.16796875 C3.84397278 85.81660889 3.63862915 86.46524902 3.42706299 87.13354492 C2.87348571 88.88144303 2.31650491 90.62826217 1.75927734 92.375 C0.9073805 94.86477326 0.9073805 94.86477326 1 97 C15.19 97 29.38 97 44 97 C41.56270221 88.86309916 41.56270221 88.86309916 39.03881836 80.75585938 C38.6851268 79.64190796 38.33143524 78.52795654 37.96702576 77.38024902 C36.37836677 72.3958801 34.78748701 67.4122313 33.19311523 62.4296875 C32.35094168 59.79661347 31.51227346 57.16246044 30.67651367 54.52734375 C29.46700337 50.71392666 28.24756498 46.90375353 27.02734375 43.09375 C26.65334946 41.91051147 26.27935516 40.72727295 25.89402771 39.50817871 C25.54348831 38.41944458 25.19294891 37.33071045 24.83178711 36.20898438 C24.52550888 35.24875366 24.21923065 34.28852295 23.90367126 33.29919434 C23.11870139 30.85240697 23.11870139 30.85240697 21 29 Z " fill="#EE2B2E" transform="translate(55,5)"/>
<path d="M0 0 C10.26192871 8.57765276 17.48971438 20.98533768 20.30859375 34.0546875 C20.30859375 36.0346875 20.30859375 38.0146875 20.30859375 40.0546875 C8.42859375 40.0546875 -3.45140625 40.0546875 -15.69140625 40.0546875 C-18.00140625 35.4346875 -20.31140625 30.8146875 -22.69140625 26.0546875 C-29.95995542 18.10042614 -38.9242397 15.52086903 -49.51953125 15.0234375 C-59.60175529 15.12276976 -67.86322634 18.35966828 -75.37890625 25.1171875 C-88.67844206 39.34244506 -89.3241928 60.04894741 -88.82763672 78.35058594 C-88.11009808 92.59334215 -83.60031781 107.92368506 -72.8125 117.76953125 C-64.58907532 124.35148956 -56.18195786 126.23681513 -45.69140625 126.0546875 C-36.80610001 124.93313536 -28.69728623 121.95661958 -22.91015625 114.875 C-20.07482717 110.74709443 -17.94311855 106.5581121 -15.69140625 102.0546875 C-3.81140625 102.0546875 8.06859375 102.0546875 20.30859375 102.0546875 C18.2624631 118.42373274 10.33846561 131.87925303 -2.62890625 142.0546875 C-8.07321384 145.8387234 -13.44632308 148.82547146 -19.69140625 151.0546875 C-20.75617188 151.4465625 -21.8209375 151.8384375 -22.91796875 152.2421875 C-44.98079631 159.04528636 -70.46990522 156.89805848 -90.95605469 146.46630859 C-108.20463234 136.99372906 -118.24745825 120.71074947 -123.94140625 102.2421875 C-131.24267355 74.80159123 -128.83115146 44.68497046 -114.76025391 19.82617188 C-112.16448482 15.52400182 -109.06945773 11.75675616 -105.69140625 8.0546875 C-105.16289062 7.43464844 -104.634375 6.81460937 -104.08984375 6.17578125 C-78.83908456 -21.62493146 -28.8849961 -20.87768949 0 0 Z " fill="#EE2B2E" transform="translate(479.69140625,16.9453125)"/>
<path d="M0 0 C28.71 0 57.42 0 87 0 C87 9.9 87 19.8 87 30 C61.59 30 36.18 30 10 30 C0 2 0 2 0 0 Z " fill="#EE2B2E" transform="translate(113,5)"/>
<path d="M0 0 C20.13 0 40.26 0 61 0 C61 9.9 61 19.8 61 30 C44.17 30 27.34 30 10 30 C4.30769231 16.33846154 4.30769231 16.33846154 2.1875 9.9375 C1.76855469 8.68839844 1.34960938 7.43929687 0.91796875 6.15234375 C0 3 0 3 0 0 Z " fill="#EE2B2E" transform="translate(136,69)"/>
<path d="M0 0 C12.87 0 25.74 0 39 0 C39 9.9 39 19.8 39 30 C29.43 30 19.86 30 10 30 C7.48238194 23.70595486 5.01046906 17.44601849 2.75 11.0625 C2.481875 10.32193359 2.21375 9.58136719 1.9375 8.81835938 C0.85208973 5.75872073 0 3.27149947 0 0 Z " fill="#EE2B2E" transform="translate(161,140)"/>
</svg>
